<svg id="SvgjsSvg1000" xmlns="http://www.w3.org/2000/svg" version="1.1" xmlns:xlink="http://www.w3.org/1999/xlink" xmlns:svgjs="http://svgjs.com/svgjs" width="100" height="90"><defs id="SvgjsDefs1001"></defs><path id="SvgjsPath1007" d="M943.754 720.503L1030.26 720.503C1033.46 720.503 1036.02 723.08 1036.02 726.278L1036.02 729.1610000000001C1036.02 732.2040000000001 1033.68 734.5980000000001 1030.71 734.839L1021.6 766.6450000000001C1018.71 772.416 1015.85 772.416 1012.96 772.416L961.041 772.416C958.172 772.416 955.2840000000001 772.416 952.397 766.6450000000001L943.303 734.839C940.314 734.5980000000001 937.979 732.2040000000001 937.979 729.1610000000001L937.979 726.278C937.979 723.08 940.5550000000001 720.503 943.754 720.503ZM985.557 683.023C989.077 683.023 991.951 685.455 992.581 688.78L992.766 688.78L1015.8499999999999 714.7429999999999L1004.3 714.7429999999999L988.361 696.8059999999999C987.484 697.17 986.558 697.4409999999999 985.557 697.4409999999999C984.571 697.4409999999999 983.628 697.17 982.769 696.8059999999999L966.816 714.7429999999999L955.284 714.7429999999999L978.348 688.78L978.531 688.78C979.18 685.4549999999999 982.053 683.023 985.5569999999999 683.023ZM959.975 734.922C956.7760000000001 734.922 954.6940000000001 737.3290000000001 955.368 740.328L959.423 758.269C960.101 761.282 963.255 763.758 966.448 763.758L967.9 763.758C971.098 763.758 973.168 761.282 972.49 758.269L968.4350000000001 740.328C967.7610000000001 737.329 964.6070000000001 734.922 961.4090000000001 734.922ZM987.009 734.922C983.811 734.922 981.234 737.498 981.234 740.696L981.234 757.998C981.234 761.196 983.811 763.758 987.009 763.758C990.203 763.758 992.766 761.196 992.766 757.998L992.766 740.696C992.766 737.498 990.203 734.922 987.009 734.922ZM1012.59 734.922C1009.39 734.922 1006.24 737.3290000000001 1005.57 740.328L1001.5100000000001 758.269C1000.8400000000001 761.282 1002.9100000000001 763.758 1006.1000000000001 763.758L1007.5500000000002 763.758C1010.7500000000002 763.758 1013.9000000000002 761.282 1014.5800000000002 758.269L1018.6300000000001 740.328C1019.3100000000001 737.329 1017.2400000000001 734.922 1014.0400000000001 734.922Z " fill="#ffffff" transform="matrix(1,0,0,1,-937,-683)"></path></svg>