<svg id="SvgjsSvg1008" xmlns="http://www.w3.org/2000/svg" version="1.1" xmlns:xlink="http://www.w3.org/1999/xlink" xmlns:svgjs="http://svgjs.com/svgjs" width="96" height="83"><defs id="SvgjsDefs1009"></defs><path id="SvgjsPath1010" d="M590.98 699.16L590.98 741.0749999999999C590.98 747.271 595.96 752.252 602.154 752.252L627.3 752.252L627.3 760.6279999999999L616.125 760.6279999999999C614.584 760.6279999999999 613.328 761.882 613.328 763.425L613.328 769.0179999999999L663.634 769.0179999999999L663.634 763.425C663.634 761.882 662.379 760.6279999999999 660.837 760.6279999999999L649.663 760.6279999999999L649.663 752.252L674.809 752.252C681.0029999999999 752.252 685.983 747.271 685.983 741.0749999999999L685.983 699.16C685.983 692.967 681.0029999999999 687.973 674.809 687.973L602.154 687.973C595.96 687.973 590.98 692.967 590.98 699.16ZM672.011 699.16C673.567 699.16 674.809 700.403 674.809 701.9449999999999L674.809 738.281C674.809 739.8209999999999 673.567 741.0749999999999 672.011 741.0749999999999L604.951 741.0749999999999C603.409 741.0749999999999 602.154 739.8209999999999 602.154 738.281L602.154 701.9449999999999C602.154 700.4029999999999 603.409 699.16 604.951 699.16Z " fill="#ffffff" transform="matrix(1,0,0,1,-590,-687)"></path></svg>