<svg id="SvgjsSvg1011" xmlns="http://www.w3.org/2000/svg" version="1.1" xmlns:xlink="http://www.w3.org/1999/xlink" xmlns:svgjs="http://svgjs.com/svgjs" width="78" height="108"><defs id="SvgjsDefs1012"></defs><path id="SvgjsPath1013" d="M301.555 714.783L268.836 694.357L238.55200000000002 742.899L271.269 763.308ZM307.508 686.433L291.58099999999996 676.5169999999999C286.919 673.6179999999999 280.792 675.045 277.895 679.7019999999999L271.332 690.2459999999999L304.121 710.6599999999999L310.69 700.1159999999999C313.586 695.4589999999998 312.165 689.3319999999999 307.508 686.4329999999999ZM288.714 718.405L267.179 752.887C266.287 754.299 264.30699999999996 754.702 262.767 753.727C261.236 752.786 260.713 750.816 261.601 749.409L283.135 714.912C284.013 713.4780000000001 286.007 713.0980000000001 287.53999999999996 714.044C289.078 715.014 289.602 716.957 288.71399999999994 718.405ZM276.848 710.995L255.323 745.494C254.425 746.9010000000001 252.44400000000002 747.299 250.918 746.3340000000001C249.368 745.373 248.851 743.418 249.756 742.0060000000001L271.286 707.5190000000001C272.164 706.0850000000002 274.146 705.6900000000002 275.686 706.6480000000001C277.21599999999995 707.6040000000002 277.745 709.5630000000001 276.84799999999996 710.9950000000001ZM267.693 769.086L235.003 748.686L235.59799999999998 763.9000000000001C239.27999999999997 763.8560000000001 243.01999999999998 764.7830000000001 246.37699999999998 766.8740000000001C249.737 768.9640000000002 252.22299999999998 771.9140000000001 253.80899999999997 775.2420000000002ZM244.59 769.736C247.35 771.453 249.383 773.893 250.605 776.659L236.338 782.985L235.72899999999998 767.393C238.749 767.2710000000001 241.832 768.023 244.58999999999997 769.736Z " fill="#ffffff" transform="matrix(1,0,0,1,-235,-675)"></path></svg>