<svg id="SvgjsSvg1017" xmlns="http://www.w3.org/2000/svg" version="1.1" xmlns:xlink="http://www.w3.org/1999/xlink" xmlns:svgjs="http://svgjs.com/svgjs" width="25" height="25"><defs id="SvgjsDefs1018"></defs><path id="SvgjsPath1019" d="M660.5 412.998C654.148 412.998 648.998 418.14799999999997 648.998 424.5C648.998 430.853 654.148 436.002 660.5 436.002C666.852 436.002 672.002 430.853 672.002 424.5C672.002 418.148 666.852 412.998 660.5 412.998ZM666.455 423.63L661.241 428.843C660.24 429.846 658.87 430.099 658.182 429.411C658.173 429.402 658.168 429.389 658.159 429.379C658.001 429.305 657.847 429.216 657.716 429.086L654.563 425.933C653.958 425.327 653.958 424.34499999999997 654.563 423.74C655.169 423.134 656.151 423.134 656.757 423.74L659.058 426.041L663.962 421.137C664.963 420.135 666.331 419.882 667.021 420.57C667.7099999999999 421.259 667.4549999999999 422.63 666.4549999999999 423.63Z " fill="#ffffff" transform="matrix(1,0,0,1,-648,-412)"></path></svg>